<svg xmlns="http://www.w3.org/2000/svg" xmlns:xlink="http://www.w3.org/1999/xlink" width="124" zoomAndPan="magnify" viewBox="0 0 93 37.5" height="50" preserveAspectRatio="xMidYMid meet" version="1.0"><defs><g/><clipPath id="41c6028744"><path d="M 5 3 L 27.996094 3 L 27.996094 16.136719 L 5 16.136719 Z M 5 3 " clip-rule="nonzero"/></clipPath><clipPath id="580c0b2ecc"><path d="M 4.3125 9 L 7 9 L 7 12 L 4.3125 12 Z M 4.3125 9 " clip-rule="nonzero"/></clipPath><clipPath id="3666be35d9"><path d="M 26 9 L 27.996094 9 L 27.996094 12 L 26 12 Z M 26 9 " clip-rule="nonzero"/></clipPath><clipPath id="eb3ab6acd3"><path d="M 15 1.332031 L 18 1.332031 L 18 4 L 15 4 Z M 15 1.332031 " clip-rule="nonzero"/></clipPath><clipPath id="0b0a8f8896"><path d="M 21 19 L 28.980469 19 L 28.980469 32 L 21 32 Z M 21 19 " clip-rule="nonzero"/></clipPath><clipPath id="fce1d05e80"><path d="M 12 17 L 21 17 L 21 34.636719 L 12 34.636719 Z M 12 17 " clip-rule="nonzero"/></clipPath></defs><g clip-path="url(#41c6028744)"><path fill="#ffffff" d="M 26.675781 10.199219 C 26.675781 10.199219 25.925781 11.703125 24.238281 10.765625 C 22.546875 9.828125 23.300781 6.636719 23.300781 6.636719 L 22.363281 5.886719 C 22.363281 5.886719 21.988281 9.261719 19.734375 9.074219 C 17.484375 8.890625 16.921875 3.074219 16.921875 3.074219 L 16.40625 3.074219 L 16.40625 3.0625 L 15.84375 3.0625 C 15.84375 3.0625 15.28125 8.878906 13.03125 9.066406 C 10.777344 9.253906 10.40625 5.875 10.40625 5.875 L 9.464844 6.625 C 9.464844 6.625 10.21875 9.816406 8.527344 10.753906 C 6.839844 11.691406 6.089844 10.191406 6.089844 10.191406 L 5.527344 10.753906 C 7.230469 12.457031 8.164062 15.054688 8.441406 15.910156 C 8.488281 16.054688 8.65625 16.125 8.789062 16.050781 C 11.859375 14.421875 14.65625 14.246094 16.359375 14.246094 C 18.0625 14.246094 20.71875 14.324219 23.976562 16.0625 C 24.109375 16.136719 24.277344 16.066406 24.324219 15.921875 C 24.597656 15.066406 25.535156 12.46875 27.238281 10.765625 Z M 26.675781 10.199219 " fill-opacity="1" fill-rule="nonzero"/></g><g clip-path="url(#580c0b2ecc)"><path fill="#ffffff" d="M 5.660156 9.210938 C 5.914062 9.273438 6.105469 9.410156 6.242188 9.632812 C 6.378906 9.851562 6.417969 10.089844 6.359375 10.339844 C 6.296875 10.59375 6.15625 10.785156 5.9375 10.921875 C 5.71875 11.058594 5.480469 11.097656 5.230469 11.039062 C 4.976562 10.976562 4.78125 10.839844 4.648438 10.617188 C 4.511719 10.398438 4.472656 10.160156 4.53125 9.910156 C 4.589844 9.65625 4.730469 9.464844 4.953125 9.328125 C 5.171875 9.191406 5.410156 9.152344 5.660156 9.210938 Z M 5.660156 9.210938 " fill-opacity="1" fill-rule="nonzero"/></g><g clip-path="url(#3666be35d9)"><path fill="#ffffff" d="M 27.414062 9.292969 C 27.664062 9.351562 27.859375 9.492188 27.996094 9.710938 C 28.132812 9.933594 28.171875 10.167969 28.109375 10.421875 C 28.050781 10.671875 27.910156 10.867188 27.691406 11.003906 C 27.46875 11.136719 27.234375 11.175781 26.984375 11.117188 C 26.730469 11.058594 26.535156 10.917969 26.398438 10.699219 C 26.265625 10.476562 26.226562 10.242188 26.285156 9.988281 C 26.34375 9.738281 26.484375 9.542969 26.703125 9.40625 C 26.925781 9.269531 27.160156 9.230469 27.414062 9.292969 Z M 27.414062 9.292969 " fill-opacity="1" fill-rule="nonzero"/></g><path fill="#ffffff" d="M 10.449219 5.230469 C 10.632812 5.414062 10.726562 5.636719 10.726562 5.894531 C 10.726562 6.15625 10.632812 6.375 10.449219 6.558594 C 10.265625 6.742188 10.046875 6.832031 9.789062 6.832031 C 9.527344 6.832031 9.308594 6.742188 9.125 6.558594 C 8.941406 6.375 8.847656 6.15625 8.847656 5.894531 C 8.847656 5.636719 8.941406 5.414062 9.125 5.230469 C 9.308594 5.050781 9.527344 4.957031 9.789062 4.957031 C 10.046875 4.957031 10.265625 5.050781 10.449219 5.230469 Z M 10.449219 5.230469 " fill-opacity="1" fill-rule="nonzero"/><path fill="#ffffff" d="M 23.613281 5.230469 C 23.796875 5.414062 23.890625 5.636719 23.890625 5.894531 C 23.890625 6.152344 23.796875 6.375 23.613281 6.558594 C 23.429688 6.742188 23.210938 6.832031 22.949219 6.832031 C 22.691406 6.832031 22.472656 6.742188 22.289062 6.558594 C 22.105469 6.375 22.011719 6.152344 22.011719 5.894531 C 22.011719 5.636719 22.105469 5.414062 22.289062 5.230469 C 22.472656 5.046875 22.691406 4.957031 22.949219 4.957031 C 23.210938 4.957031 23.429688 5.046875 23.613281 5.230469 Z M 23.613281 5.230469 " fill-opacity="1" fill-rule="nonzero"/><g clip-path="url(#eb3ab6acd3)"><path fill="#ffffff" d="M 17.042969 1.996094 C 17.226562 2.175781 17.320312 2.398438 17.320312 2.65625 C 17.320312 2.917969 17.226562 3.136719 17.042969 3.320312 C 16.859375 3.503906 16.640625 3.59375 16.382812 3.59375 C 16.121094 3.59375 15.902344 3.503906 15.71875 3.320312 C 15.535156 3.136719 15.441406 2.917969 15.441406 2.65625 C 15.441406 2.398438 15.535156 2.175781 15.71875 1.996094 C 15.902344 1.8125 16.121094 1.71875 16.382812 1.71875 C 16.640625 1.71875 16.859375 1.8125 17.042969 1.996094 Z M 17.042969 1.996094 " fill-opacity="1" fill-rule="nonzero"/></g><path fill="#ffffff" d="M 10.15625 31.90625 C 9.789062 31.90625 9.542969 31.785156 9.292969 31.539062 L 4.367188 26.609375 C 3.875 26.117188 3.875 25.378906 4.367188 24.882812 L 9.292969 19.957031 C 9.789062 19.460938 10.527344 19.460938 11.019531 19.957031 C 11.511719 20.449219 11.511719 21.1875 11.019531 21.679688 L 6.953125 25.746094 L 11.019531 29.8125 C 11.511719 30.304688 11.511719 31.046875 11.019531 31.539062 C 10.773438 31.785156 10.527344 31.90625 10.15625 31.90625 Z M 10.15625 31.90625 " fill-opacity="1" fill-rule="nonzero"/><g clip-path="url(#0b0a8f8896)"><path fill="#ffffff" d="M 22.480469 31.90625 C 22.109375 31.90625 21.863281 31.785156 21.617188 31.539062 C 21.125 31.046875 21.125 30.304688 21.617188 29.8125 L 25.683594 25.746094 L 21.617188 21.679688 C 21.125 21.1875 21.125 20.449219 21.617188 19.957031 C 22.109375 19.460938 22.847656 19.460938 23.34375 19.957031 L 28.269531 24.882812 C 28.761719 25.378906 28.761719 26.117188 28.269531 26.609375 L 23.34375 31.539062 C 23.09375 31.785156 22.847656 31.90625 22.480469 31.90625 Z M 22.480469 31.90625 " fill-opacity="1" fill-rule="nonzero"/></g><g clip-path="url(#fce1d05e80)"><path fill="#ffffff" d="M 13.855469 34.371094 C 13.730469 34.371094 13.609375 34.371094 13.484375 34.25 C 12.867188 34.003906 12.5 33.386719 12.746094 32.648438 L 17.675781 17.859375 C 17.921875 17.246094 18.535156 16.875 19.277344 17.121094 C 19.890625 17.367188 20.261719 17.984375 20.015625 18.722656 L 15.085938 33.507812 C 14.839844 34.003906 14.347656 34.371094 13.855469 34.371094 Z M 13.855469 34.371094 " fill-opacity="1" fill-rule="nonzero"/></g><g fill="#ffffff" fill-opacity="1"><g transform="translate(34.602962, 16.224938)"><g><path d="M 0.875 -7.84375 L 6.21875 -7.84375 L 6.203125 -6.515625 L 2.46875 -6.515625 L 2.46875 -4.546875 L 5.703125 -4.546875 L 5.703125 -3.25 L 2.46875 -3.25 L 2.46875 0 L 0.875 0 Z M 0.875 -7.84375 "/></g></g></g><g fill="#ffffff" fill-opacity="1"><g transform="translate(41.257855, 16.224938)"><g><path d="M 0.671875 0 L 0.671875 -5.609375 L 2.203125 -5.609375 L 2.203125 -4.28125 C 2.296875 -4.5625 2.421875 -4.804688 2.578125 -5.015625 C 2.742188 -5.234375 2.941406 -5.40625 3.171875 -5.53125 C 3.410156 -5.65625 3.679688 -5.71875 3.984375 -5.71875 C 4.035156 -5.71875 4.082031 -5.710938 4.125 -5.703125 C 4.164062 -5.703125 4.195312 -5.695312 4.21875 -5.6875 L 4.21875 -4.171875 C 4.1875 -4.191406 4.148438 -4.203125 4.109375 -4.203125 C 4.066406 -4.203125 4.023438 -4.207031 3.984375 -4.21875 C 3.671875 -4.238281 3.40625 -4.226562 3.1875 -4.1875 C 2.96875 -4.144531 2.785156 -4.070312 2.640625 -3.96875 C 2.503906 -3.863281 2.40625 -3.734375 2.34375 -3.578125 C 2.289062 -3.421875 2.265625 -3.25 2.265625 -3.0625 L 2.265625 0 Z M 0.671875 0 "/></g></g></g><g fill="#ffffff" fill-opacity="1"><g transform="translate(45.667327, 16.224938)"><g><path d="M 3.078125 0.109375 C 2.535156 0.109375 2.0625 -0.00390625 1.65625 -0.234375 C 1.25 -0.472656 0.929688 -0.804688 0.703125 -1.234375 C 0.484375 -1.671875 0.375 -2.179688 0.375 -2.765625 C 0.375 -3.359375 0.484375 -3.875 0.703125 -4.3125 C 0.929688 -4.757812 1.25 -5.101562 1.65625 -5.34375 C 2.0625 -5.59375 2.539062 -5.71875 3.09375 -5.71875 C 3.644531 -5.71875 4.125 -5.597656 4.53125 -5.359375 C 4.9375 -5.117188 5.25 -4.773438 5.46875 -4.328125 C 5.6875 -3.890625 5.796875 -3.367188 5.796875 -2.765625 C 5.796875 -2.203125 5.6875 -1.703125 5.46875 -1.265625 C 5.257812 -0.835938 4.953125 -0.5 4.546875 -0.25 C 4.140625 -0.0078125 3.648438 0.109375 3.078125 0.109375 Z M 3.09375 -1.0625 C 3.375 -1.0625 3.597656 -1.144531 3.765625 -1.3125 C 3.929688 -1.476562 4.050781 -1.691406 4.125 -1.953125 C 4.207031 -2.222656 4.25 -2.515625 4.25 -2.828125 C 4.25 -3.117188 4.210938 -3.394531 4.140625 -3.65625 C 4.078125 -3.925781 3.957031 -4.140625 3.78125 -4.296875 C 3.613281 -4.460938 3.382812 -4.546875 3.09375 -4.546875 C 2.8125 -4.546875 2.582031 -4.46875 2.40625 -4.3125 C 2.238281 -4.164062 2.113281 -3.957031 2.03125 -3.6875 C 1.957031 -3.425781 1.921875 -3.140625 1.921875 -2.828125 C 1.921875 -2.535156 1.957031 -2.253906 2.03125 -1.984375 C 2.101562 -1.710938 2.222656 -1.488281 2.390625 -1.3125 C 2.554688 -1.144531 2.789062 -1.0625 3.09375 -1.0625 Z M 3.09375 -1.0625 "/></g></g></g><g fill="#ffffff" fill-opacity="1"><g transform="translate(51.839514, 16.224938)"><g><path d="M 0.671875 0 L 0.671875 -5.609375 L 2.234375 -5.609375 L 2.234375 -4.8125 C 2.316406 -4.945312 2.425781 -5.078125 2.5625 -5.203125 C 2.707031 -5.335938 2.882812 -5.445312 3.09375 -5.53125 C 3.3125 -5.613281 3.566406 -5.65625 3.859375 -5.65625 C 4.203125 -5.65625 4.519531 -5.585938 4.8125 -5.453125 C 5.113281 -5.316406 5.359375 -5.101562 5.546875 -4.8125 C 5.734375 -4.53125 5.828125 -4.160156 5.828125 -3.703125 L 5.828125 0 L 4.234375 0 L 4.234375 -3.5 C 4.234375 -3.800781 4.144531 -4.023438 3.96875 -4.171875 C 3.789062 -4.328125 3.570312 -4.40625 3.3125 -4.40625 C 3.132812 -4.40625 2.960938 -4.375 2.796875 -4.3125 C 2.640625 -4.257812 2.507812 -4.171875 2.40625 -4.046875 C 2.3125 -3.921875 2.265625 -3.769531 2.265625 -3.59375 L 2.265625 0 Z M 0.671875 0 "/></g></g></g><g fill="#ffffff" fill-opacity="1"><g transform="translate(58.272038, 16.224938)"><g><path d="M 4.09375 -4.5 L 2.84375 -4.5 L 2.859375 -1.515625 C 2.859375 -1.378906 2.875 -1.273438 2.90625 -1.203125 C 2.9375 -1.140625 2.988281 -1.097656 3.0625 -1.078125 C 3.144531 -1.054688 3.242188 -1.046875 3.359375 -1.046875 L 4.109375 -1.046875 L 4.109375 -0.078125 C 4.035156 -0.046875 3.921875 -0.015625 3.765625 0.015625 C 3.617188 0.046875 3.40625 0.0625 3.125 0.0625 C 2.632812 0.0625 2.253906 0 1.984375 -0.125 C 1.710938 -0.25 1.523438 -0.425781 1.421875 -0.65625 C 1.316406 -0.882812 1.265625 -1.148438 1.265625 -1.453125 L 1.265625 -4.5 L 0.359375 -4.5 L 0.359375 -5.609375 L 1.328125 -5.609375 L 1.71875 -7.296875 L 2.84375 -7.296875 L 2.84375 -5.609375 L 4.09375 -5.609375 Z M 4.09375 -4.5 "/></g></g></g><g fill="#ffffff" fill-opacity="1"><g transform="translate(62.855069, 16.224938)"><g><path d="M 1.984375 -2.4375 C 1.972656 -2.15625 2.015625 -1.90625 2.109375 -1.6875 C 2.203125 -1.476562 2.335938 -1.316406 2.515625 -1.203125 C 2.703125 -1.085938 2.921875 -1.03125 3.171875 -1.03125 C 3.441406 -1.03125 3.675781 -1.085938 3.875 -1.203125 C 4.082031 -1.316406 4.226562 -1.507812 4.3125 -1.78125 L 5.734375 -1.78125 C 5.671875 -1.382812 5.507812 -1.046875 5.25 -0.765625 C 5 -0.484375 4.691406 -0.265625 4.328125 -0.109375 C 3.972656 0.0351562 3.597656 0.109375 3.203125 0.109375 C 2.648438 0.109375 2.160156 -0.00390625 1.734375 -0.234375 C 1.316406 -0.472656 0.988281 -0.804688 0.75 -1.234375 C 0.519531 -1.660156 0.40625 -2.160156 0.40625 -2.734375 C 0.40625 -3.296875 0.507812 -3.800781 0.71875 -4.25 C 0.9375 -4.695312 1.25 -5.050781 1.65625 -5.3125 C 2.0625 -5.582031 2.550781 -5.71875 3.125 -5.71875 C 3.695312 -5.71875 4.175781 -5.597656 4.5625 -5.359375 C 4.957031 -5.117188 5.25 -4.78125 5.4375 -4.34375 C 5.632812 -3.914062 5.734375 -3.425781 5.734375 -2.875 L 5.734375 -2.4375 Z M 1.96875 -3.390625 L 4.265625 -3.390625 C 4.265625 -3.609375 4.222656 -3.8125 4.140625 -4 C 4.054688 -4.1875 3.929688 -4.332031 3.765625 -4.4375 C 3.597656 -4.550781 3.382812 -4.609375 3.125 -4.609375 C 2.882812 -4.609375 2.675781 -4.546875 2.5 -4.421875 C 2.332031 -4.304688 2.203125 -4.15625 2.109375 -3.96875 C 2.015625 -3.78125 1.96875 -3.585938 1.96875 -3.390625 Z M 1.96875 -3.390625 "/></g></g></g><g fill="#ffffff" fill-opacity="1"><g transform="translate(69.021823, 16.224938)"><g><path d="M 0.671875 0 L 0.671875 -5.609375 L 2.234375 -5.609375 L 2.234375 -4.8125 C 2.316406 -4.945312 2.425781 -5.078125 2.5625 -5.203125 C 2.707031 -5.335938 2.882812 -5.445312 3.09375 -5.53125 C 3.3125 -5.613281 3.566406 -5.65625 3.859375 -5.65625 C 4.203125 -5.65625 4.519531 -5.585938 4.8125 -5.453125 C 5.113281 -5.316406 5.359375 -5.101562 5.546875 -4.8125 C 5.734375 -4.53125 5.828125 -4.160156 5.828125 -3.703125 L 5.828125 0 L 4.234375 0 L 4.234375 -3.5 C 4.234375 -3.800781 4.144531 -4.023438 3.96875 -4.171875 C 3.789062 -4.328125 3.570312 -4.40625 3.3125 -4.40625 C 3.132812 -4.40625 2.960938 -4.375 2.796875 -4.3125 C 2.640625 -4.257812 2.507812 -4.171875 2.40625 -4.046875 C 2.3125 -3.921875 2.265625 -3.769531 2.265625 -3.59375 L 2.265625 0 Z M 0.671875 0 "/></g></g></g><g fill="#ffffff" fill-opacity="1"><g transform="translate(75.454347, 16.224938)"><g><path d="M 2.765625 0.109375 C 2.003906 0.109375 1.414062 -0.148438 1 -0.671875 C 0.582031 -1.191406 0.375 -1.910156 0.375 -2.828125 C 0.375 -3.421875 0.457031 -3.929688 0.625 -4.359375 C 0.800781 -4.785156 1.050781 -5.117188 1.375 -5.359375 C 1.707031 -5.597656 2.117188 -5.71875 2.609375 -5.71875 C 2.804688 -5.71875 2.992188 -5.691406 3.171875 -5.640625 C 3.347656 -5.597656 3.503906 -5.535156 3.640625 -5.453125 C 3.785156 -5.378906 3.910156 -5.289062 4.015625 -5.1875 C 4.128906 -5.082031 4.222656 -4.96875 4.296875 -4.84375 L 4.296875 -8.0625 L 5.875 -8.0625 L 5.875 0 L 4.734375 0 L 4.546875 -1.15625 C 4.503906 -1 4.4375 -0.84375 4.34375 -0.6875 C 4.25 -0.539062 4.128906 -0.40625 3.984375 -0.28125 C 3.847656 -0.164062 3.675781 -0.0703125 3.46875 0 C 3.269531 0.0703125 3.035156 0.109375 2.765625 0.109375 Z M 3.109375 -1.03125 C 3.503906 -1.03125 3.800781 -1.164062 4 -1.4375 C 4.195312 -1.71875 4.296875 -2.191406 4.296875 -2.859375 C 4.285156 -3.242188 4.238281 -3.5625 4.15625 -3.8125 C 4.070312 -4.0625 3.941406 -4.25 3.765625 -4.375 C 3.597656 -4.5 3.382812 -4.5625 3.125 -4.5625 C 2.78125 -4.5625 2.492188 -4.429688 2.265625 -4.171875 C 2.035156 -3.910156 1.921875 -3.472656 1.921875 -2.859375 C 1.921875 -2.234375 2.023438 -1.769531 2.234375 -1.46875 C 2.453125 -1.175781 2.742188 -1.03125 3.109375 -1.03125 Z M 3.109375 -1.03125 "/></g></g></g><g fill="#ffffff" fill-opacity="1"><g transform="translate(82.017639, 16.224938)"><g/></g></g><g fill="#ffffff" fill-opacity="1"><g transform="translate(34.602962, 31.027569)"><g><path d="M 0.515625 -3.90625 C 0.515625 -4.738281 0.664062 -5.457031 0.96875 -6.0625 C 1.269531 -6.664062 1.6875 -7.128906 2.21875 -7.453125 C 2.757812 -7.785156 3.394531 -7.953125 4.125 -7.953125 C 4.863281 -7.953125 5.5 -7.785156 6.03125 -7.453125 C 6.570312 -7.128906 6.988281 -6.664062 7.28125 -6.0625 C 7.582031 -5.457031 7.734375 -4.738281 7.734375 -3.90625 C 7.734375 -3.1875 7.625 -2.554688 7.40625 -2.015625 C 7.195312 -1.472656 6.875 -1.019531 6.4375 -0.65625 C 6.519531 -0.4375 6.675781 -0.257812 6.90625 -0.125 C 7.144531 0 7.410156 0.0625 7.703125 0.0625 L 7.703125 1.328125 C 7.359375 1.328125 7.035156 1.296875 6.734375 1.234375 C 6.429688 1.179688 6.140625 1.0625 5.859375 0.875 C 5.578125 0.695312 5.300781 0.414062 5.03125 0.03125 C 4.84375 0.0625 4.679688 0.0820312 4.546875 0.09375 C 4.410156 0.101562 4.269531 0.109375 4.125 0.109375 C 3.394531 0.109375 2.757812 -0.046875 2.21875 -0.359375 C 1.675781 -0.679688 1.253906 -1.140625 0.953125 -1.734375 C 0.660156 -2.335938 0.515625 -3.0625 0.515625 -3.90625 Z M 2.265625 -3.875 C 2.265625 -2.914062 2.425781 -2.226562 2.75 -1.8125 C 3.082031 -1.394531 3.539062 -1.1875 4.125 -1.1875 C 4.71875 -1.1875 5.175781 -1.394531 5.5 -1.8125 C 5.832031 -2.226562 6 -2.921875 6 -3.890625 C 6 -4.859375 5.832031 -5.554688 5.5 -5.984375 C 5.175781 -6.421875 4.71875 -6.640625 4.125 -6.640625 C 3.539062 -6.640625 3.082031 -6.421875 2.75 -5.984375 C 2.425781 -5.554688 2.265625 -4.851562 2.265625 -3.875 Z M 2.265625 -3.875 "/></g></g></g><g fill="#ffffff" fill-opacity="1"><g transform="translate(42.988021, 31.027569)"><g><path d="M 2.75 0.109375 C 2.488281 0.109375 2.226562 0.0703125 1.96875 0 C 1.71875 -0.0820312 1.488281 -0.203125 1.28125 -0.359375 C 1.082031 -0.515625 0.921875 -0.707031 0.796875 -0.9375 C 0.671875 -1.164062 0.609375 -1.429688 0.609375 -1.734375 L 0.609375 -5.609375 L 2.1875 -5.609375 L 2.1875 -1.9375 C 2.1875 -1.675781 2.269531 -1.460938 2.4375 -1.296875 C 2.613281 -1.128906 2.863281 -1.046875 3.1875 -1.046875 C 3.5 -1.046875 3.742188 -1.125 3.921875 -1.28125 C 4.109375 -1.445312 4.203125 -1.671875 4.203125 -1.953125 L 4.203125 -5.609375 L 5.78125 -5.609375 L 5.78125 0 L 4.578125 0 L 4.390625 -1.109375 C 4.328125 -0.785156 4.207031 -0.535156 4.03125 -0.359375 C 3.851562 -0.179688 3.648438 -0.0625 3.421875 0 C 3.191406 0.0703125 2.96875 0.109375 2.75 0.109375 Z M 2.75 0.109375 "/></g></g></g><g fill="#ffffff" fill-opacity="1"><g transform="translate(49.371723, 31.027569)"><g><path d="M 1.984375 -2.4375 C 1.972656 -2.15625 2.015625 -1.90625 2.109375 -1.6875 C 2.203125 -1.476562 2.335938 -1.316406 2.515625 -1.203125 C 2.703125 -1.085938 2.921875 -1.03125 3.171875 -1.03125 C 3.441406 -1.03125 3.675781 -1.085938 3.875 -1.203125 C 4.082031 -1.316406 4.226562 -1.507812 4.3125 -1.78125 L 5.734375 -1.78125 C 5.671875 -1.382812 5.507812 -1.046875 5.25 -0.765625 C 5 -0.484375 4.691406 -0.265625 4.328125 -0.109375 C 3.972656 0.0351562 3.597656 0.109375 3.203125 0.109375 C 2.648438 0.109375 2.160156 -0.00390625 1.734375 -0.234375 C 1.316406 -0.472656 0.988281 -0.804688 0.75 -1.234375 C 0.519531 -1.660156 0.40625 -2.160156 0.40625 -2.734375 C 0.40625 -3.296875 0.507812 -3.800781 0.71875 -4.25 C 0.9375 -4.695312 1.25 -5.050781 1.65625 -5.3125 C 2.0625 -5.582031 2.550781 -5.71875 3.125 -5.71875 C 3.695312 -5.71875 4.175781 -5.597656 4.5625 -5.359375 C 4.957031 -5.117188 5.25 -4.78125 5.4375 -4.34375 C 5.632812 -3.914062 5.734375 -3.425781 5.734375 -2.875 L 5.734375 -2.4375 Z M 1.96875 -3.390625 L 4.265625 -3.390625 C 4.265625 -3.609375 4.222656 -3.8125 4.140625 -4 C 4.054688 -4.1875 3.929688 -4.332031 3.765625 -4.4375 C 3.597656 -4.550781 3.382812 -4.609375 3.125 -4.609375 C 2.882812 -4.609375 2.675781 -4.546875 2.5 -4.421875 C 2.332031 -4.304688 2.203125 -4.15625 2.109375 -3.96875 C 2.015625 -3.78125 1.96875 -3.585938 1.96875 -3.390625 Z M 1.96875 -3.390625 "/></g></g></g><g fill="#ffffff" fill-opacity="1"><g transform="translate(55.538477, 31.027569)"><g><path d="M 1.984375 -2.4375 C 1.972656 -2.15625 2.015625 -1.90625 2.109375 -1.6875 C 2.203125 -1.476562 2.335938 -1.316406 2.515625 -1.203125 C 2.703125 -1.085938 2.921875 -1.03125 3.171875 -1.03125 C 3.441406 -1.03125 3.675781 -1.085938 3.875 -1.203125 C 4.082031 -1.316406 4.226562 -1.507812 4.3125 -1.78125 L 5.734375 -1.78125 C 5.671875 -1.382812 5.507812 -1.046875 5.25 -0.765625 C 5 -0.484375 4.691406 -0.265625 4.328125 -0.109375 C 3.972656 0.0351562 3.597656 0.109375 3.203125 0.109375 C 2.648438 0.109375 2.160156 -0.00390625 1.734375 -0.234375 C 1.316406 -0.472656 0.988281 -0.804688 0.75 -1.234375 C 0.519531 -1.660156 0.40625 -2.160156 0.40625 -2.734375 C 0.40625 -3.296875 0.507812 -3.800781 0.71875 -4.25 C 0.9375 -4.695312 1.25 -5.050781 1.65625 -5.3125 C 2.0625 -5.582031 2.550781 -5.71875 3.125 -5.71875 C 3.695312 -5.71875 4.175781 -5.597656 4.5625 -5.359375 C 4.957031 -5.117188 5.25 -4.78125 5.4375 -4.34375 C 5.632812 -3.914062 5.734375 -3.425781 5.734375 -2.875 L 5.734375 -2.4375 Z M 1.96875 -3.390625 L 4.265625 -3.390625 C 4.265625 -3.609375 4.222656 -3.8125 4.140625 -4 C 4.054688 -4.1875 3.929688 -4.332031 3.765625 -4.4375 C 3.597656 -4.550781 3.382812 -4.609375 3.125 -4.609375 C 2.882812 -4.609375 2.675781 -4.546875 2.5 -4.421875 C 2.332031 -4.304688 2.203125 -4.15625 2.109375 -3.96875 C 2.015625 -3.78125 1.96875 -3.585938 1.96875 -3.390625 Z M 1.96875 -3.390625 "/></g></g></g><g fill="#ffffff" fill-opacity="1"><g transform="translate(61.705231, 31.027569)"><g><path d="M 0.671875 0 L 0.671875 -5.609375 L 2.234375 -5.609375 L 2.234375 -4.8125 C 2.316406 -4.945312 2.425781 -5.078125 2.5625 -5.203125 C 2.707031 -5.335938 2.882812 -5.445312 3.09375 -5.53125 C 3.3125 -5.613281 3.566406 -5.65625 3.859375 -5.65625 C 4.203125 -5.65625 4.519531 -5.585938 4.8125 -5.453125 C 5.113281 -5.316406 5.359375 -5.101562 5.546875 -4.8125 C 5.734375 -4.53125 5.828125 -4.160156 5.828125 -3.703125 L 5.828125 0 L 4.234375 0 L 4.234375 -3.5 C 4.234375 -3.800781 4.144531 -4.023438 3.96875 -4.171875 C 3.789062 -4.328125 3.570312 -4.40625 3.3125 -4.40625 C 3.132812 -4.40625 2.960938 -4.375 2.796875 -4.3125 C 2.640625 -4.257812 2.507812 -4.171875 2.40625 -4.046875 C 2.3125 -3.921875 2.265625 -3.769531 2.265625 -3.59375 L 2.265625 0 Z M 0.671875 0 "/></g></g></g><g fill="#ffffff" fill-opacity="1"><g transform="translate(68.137756, 31.027569)"><g><path d="M 2.890625 0.109375 C 2.503906 0.109375 2.128906 0.046875 1.765625 -0.078125 C 1.398438 -0.210938 1.09375 -0.414062 0.84375 -0.6875 C 0.601562 -0.96875 0.445312 -1.328125 0.375 -1.765625 L 1.75 -1.765625 C 1.789062 -1.566406 1.875 -1.410156 2 -1.296875 C 2.125 -1.179688 2.265625 -1.097656 2.421875 -1.046875 C 2.585938 -0.992188 2.742188 -0.96875 2.890625 -0.96875 C 3.191406 -0.96875 3.429688 -1.015625 3.609375 -1.109375 C 3.796875 -1.210938 3.890625 -1.363281 3.890625 -1.5625 C 3.890625 -1.71875 3.832031 -1.835938 3.71875 -1.921875 C 3.613281 -2.015625 3.4375 -2.082031 3.1875 -2.125 L 2.203125 -2.34375 C 1.703125 -2.445312 1.300781 -2.625 1 -2.875 C 0.707031 -3.125 0.554688 -3.476562 0.546875 -3.9375 C 0.546875 -4.28125 0.632812 -4.582031 0.8125 -4.84375 C 0.988281 -5.113281 1.253906 -5.328125 1.609375 -5.484375 C 1.960938 -5.640625 2.394531 -5.71875 2.90625 -5.71875 C 3.59375 -5.71875 4.140625 -5.5625 4.546875 -5.25 C 4.960938 -4.945312 5.175781 -4.519531 5.1875 -3.96875 L 3.859375 -3.96875 C 3.828125 -4.1875 3.722656 -4.351562 3.546875 -4.46875 C 3.367188 -4.59375 3.148438 -4.65625 2.890625 -4.65625 C 2.609375 -4.65625 2.378906 -4.601562 2.203125 -4.5 C 2.023438 -4.40625 1.9375 -4.257812 1.9375 -4.0625 C 1.9375 -3.914062 2.007812 -3.796875 2.15625 -3.703125 C 2.300781 -3.617188 2.523438 -3.546875 2.828125 -3.484375 L 3.734375 -3.28125 C 4.054688 -3.207031 4.3125 -3.101562 4.5 -2.96875 C 4.695312 -2.84375 4.847656 -2.703125 4.953125 -2.546875 C 5.066406 -2.390625 5.144531 -2.234375 5.1875 -2.078125 C 5.226562 -1.921875 5.25 -1.773438 5.25 -1.640625 C 5.25 -1.273438 5.148438 -0.957031 4.953125 -0.6875 C 4.753906 -0.425781 4.476562 -0.226562 4.125 -0.09375 C 3.769531 0.0390625 3.359375 0.109375 2.890625 0.109375 Z M 2.890625 0.109375 "/></g></g></g></svg>